<svg xmlns="http://www.w3.org/2000/svg" viewBox="0 0 512 512"><defs><style>.cls-1{fill:#27273d;}.cls-2{fill:#9e4830;}.cls-3{fill:#fff;}.cls-4{fill:#f6c752;}.cls-5{fill:#e5a82e;}.cls-6{fill:#cc9129;}.cls-7{fill:#ffe5a4;}.cls-8{fill:#32314b;}.cls-9{fill:#ddd;}</style></defs><g id="BULINE"><circle class="cls-1" cx="256" cy="256" r="256"/></g><g id="Icons"><rect class="cls-2" x="35.5" y="106.45" width="441" height="305.58" rx="11.59"/><rect class="cls-3" x="59.55" y="100.92" width="392.89" height="291.77" rx="10.69"/><path class="cls-4" d="M230.4,228.31l-21.29-77.66s0,0,0-.05-.05-.12-.07-.19a1,1,0,0,1-.07-.15l-.1-.15a.71.71,0,0,0-.1-.14l-.12-.13-.13-.12a.71.71,0,0,0-.14-.1l-.15-.1-.15-.07-.19-.07-.05,0-.11,0-.2,0h-.35l-.2,0h-.11l0,0-.18.07-.16.07-.14.1-.15.1-.12.12a.8.8,0,0,0-.13.13.71.71,0,0,0-.1.14l-.1.15-.06.15c0,.07-.06.13-.08.19s0,0,0,.05l-21.29,77.66a1.82,1.82,0,0,0,1.28,2.25,1.71,1.71,0,0,0,.49.07,1.84,1.84,0,0,0,1.77-1.35l19.53-71.2,19.52,71.2a1.84,1.84,0,0,0,1.77,1.35,1.71,1.71,0,0,0,.49-.07A1.82,1.82,0,0,0,230.4,228.31Z"/><path class="cls-5" d="M184.39,227.94h45.9a2.39,2.39,0,0,1,2.39,2.39v5.11A21.63,21.63,0,0,1,211,257.07h-7.4A21.63,21.63,0,0,1,182,235.43v-5.11A2.39,2.39,0,0,1,184.39,227.94Z"/><path class="cls-6" d="M211,257.07h-7.35A21.64,21.64,0,0,1,182,235.43v-5.11a2.39,2.39,0,0,1,2.39-2.38h7.34a2.39,2.39,0,0,0-2.39,2.38v5.11A21.64,21.64,0,0,0,211,257.07Z"/><path class="cls-4" d="M129.57,228.31l-21.3-77.66s0,0,0-.05,0-.12-.07-.19a1,1,0,0,0-.07-.15,1.19,1.19,0,0,0-.09-.15l-.1-.14a.8.8,0,0,0-.13-.13l-.12-.12-.15-.1-.15-.1-.15-.07-.19-.07,0,0-.11,0-.2,0h-.35l-.21,0H106l0,0-.19.07-.15.07-.15.1a.71.71,0,0,0-.14.1l-.13.12-.12.13a.71.71,0,0,0-.1.14l-.1.15a1,1,0,0,0-.07.15c0,.07,0,.13-.07.19l0,.05-21.3,77.66a1.83,1.83,0,0,0,1.29,2.25,1.66,1.66,0,0,0,.49.07A1.85,1.85,0,0,0,87,229.28l19.52-71.2L126,229.28a1.84,1.84,0,0,0,1.77,1.35,1.59,1.59,0,0,0,.48-.07A1.82,1.82,0,0,0,129.57,228.31Z"/><path class="cls-6" d="M188.22,271.75h-6.59v-8.17a4.25,4.25,0,0,0-4.25-4.25H136.29a4.25,4.25,0,0,0-4.25,4.25v8.17h-6.59l-.54,0h0a5.11,5.11,0,0,0-4.63,5.14v4.85a2.85,2.85,0,0,0,2.84,2.85h67.41a2.86,2.86,0,0,0,2.85-2.85v-4.85A5.17,5.17,0,0,0,188.22,271.75Z"/><path class="cls-5" d="M213.41,147.49h-50.7V133.08a5.88,5.88,0,0,0-11.75,0v14.41h-50.7a3.64,3.64,0,1,0,0,7.28H151V259.33h11.75V154.77h50.7a3.64,3.64,0,1,0,0-7.28Z"/><circle class="cls-4" cx="156.84" cy="151.13" r="11.75"/><circle class="cls-7" cx="156.84" cy="151.13" r="7.71"/><path class="cls-5" d="M83.55,227.94h45.9a2.39,2.39,0,0,1,2.39,2.39v5.11a21.63,21.63,0,0,1-21.63,21.63h-7.4a21.63,21.63,0,0,1-21.63-21.63v-5.11A2.39,2.39,0,0,1,83.55,227.94Z"/><path class="cls-6" d="M110.14,257.07H102.8a21.63,21.63,0,0,1-21.63-21.64v-5.11a2.38,2.38,0,0,1,2.38-2.38H90.9a2.39,2.39,0,0,0-2.39,2.38v5.11A21.64,21.64,0,0,0,110.14,257.07Z"/><path class="cls-8" d="M216.06,326.15H97.61a5,5,0,0,1,0-10H216.06a5,5,0,1,1,0,10Z"/><path class="cls-8" d="M216.06,362H97.61a5,5,0,0,1,0-10H216.06a5,5,0,0,1,0,10Z"/><path class="cls-8" d="M411.3,148H292.84a5,5,0,0,1,0-10H411.3a5,5,0,0,1,0,10Z"/><path class="cls-8" d="M406.17,183.81H298a5,5,0,0,1,0-10H406.17a5,5,0,0,1,0,10Z"/><path class="cls-8" d="M411.3,219.2H292.84a5,5,0,0,1,0-10H411.3a5,5,0,0,1,0,10Z"/><path class="cls-8" d="M387.84,254.59H316.29a5,5,0,0,1,0-10h71.55a5,5,0,0,1,0,10Z"/><path class="cls-8" d="M411.3,290H292.84a5,5,0,1,1,0-10H411.3a5,5,0,0,1,0,10Z"/><path class="cls-8" d="M403.84,325.38H300.29a5,5,0,0,1,0-10H403.84a5,5,0,1,1,0,10Z"/><path class="cls-8" d="M411.3,360.78H292.84a5,5,0,1,1,0-10H411.3a5,5,0,0,1,0,10Z"/><rect class="cls-9" x="247" y="100.92" width="18" height="291.77"/></g></svg>